<?xml version="1.0" encoding="utf-8"?>
<!-- Generator: Adobe Illustrator 17.1.0, SVG Export Plug-In . SVG Version: 6.00 Build 0)  -->
<!DOCTYPE svg PUBLIC "-//W3C//DTD SVG 1.1//EN" "http://www.w3.org/Graphics/SVG/1.1/DTD/svg11.dtd">
<svg version="1.1" id="Layer_1" xmlns="http://www.w3.org/2000/svg" xmlns:xlink="http://www.w3.org/1999/xlink" x="0px" y="0px"
	 viewBox="0 0 500 500" enable-background="new 0 0 500 500" xml:space="preserve">
<g>
	<g>
		<path fill="#FFFFFF" d="M295.5,135.8c-7.6-0.7-13-1-13-1S287.8,135.3,295.5,135.8z"/>
		<path fill="#FFFFFF" d="M299.9,77.8c-3-3.5-4.9-5.6-4.9-5.6S296.8,74.3,299.9,77.8z"/>
		<path fill="#FFFFFF" d="M392.8,200.8c1.5,3.2,2.4,5.2,2.4,5.2S394.3,204,392.8,200.8z"/>
		<path fill="#FFFFFF" d="M351.2,229.8c-0.7,4.1-1.2,6.6-1.2,6.6S350.5,233.9,351.2,229.8z"/>
		<path fill="#FFFFFF" d="M346.8,74.1c-2.4-6.9-4.2-11.6-4.2-11.6S344.2,67.3,346.8,74.1z"/>
		<path fill="#FFFFFF" d="M379.2,153c6.7-0.6,73.8,24,73.8,24s-70.1-26.2-70.8-34.7c-0.3-4.1,34.2-21.1,55.9-31.4
			c-20.9,9.5-54.1,23.4-60.4,19.2c-4-2.7,5.5-25,9.2-33.5c-3.4,7.4-11.9,24.7-17.2,26.1c-4,1-16.4-30.8-23-48.5
			c5.6,15.8,14.6,43,13.9,51.9c-1.6,17.2-45.8-31.2-60.8-48.2c13.3,15.2,49.1,56.3,49.8,58.3c1.2,3.3-34.3,1.2-54.2-0.3
			c19.7,1.8,54.3,6.2,49.7,14.1c-4.2,7.3-19.7,19.7-35.1,31c-7.2-0.7-15.5-2.5-25.3-5.9c-21.6-7.6-40.1-7.3-55.1-2.3
			c-21.7,7.3-35.6,23.7-44.2,38c-1.9,3.1-3.6,6.2-4.9,9c-6-0.8-11.4-0.2-15.4,1.7c-18.3-3.2-37.6-1.8-56.3,5.1
			c-56.4,20.7-85.4,83.3-64.6,139.7c20.8,56.5,83.3,85.4,139.7,64.7c56.5-20.8,85.4-83.3,64.7-139.7c-8.4-23-23.8-41.4-42.9-53.8
			c-0.9-5.2-6.1-10.7-13.6-14.3c1.5-2.9,3.1-5.9,4.9-8.8c7.9-12.3,19.6-24.9,36.3-30.4c12.4-4.1,27.8-4.6,47.5,2.2
			c5.5,1.9,10.7,3.4,15.6,4.5c-12,8-20.9,14.3-20.9,14.3s9.2-6,21-14.2c15.9,3.6,28.5,2.9,38.6-0.4c10.6-3.6,18-10.1,22.9-16.9
			c-0.4,17.2-4.7,44.2-6.8,56.6c3.4-18.9,13.3-72.1,18.4-69.9c4.2,1.9,17.6,29.2,23.1,40.9C386.7,187.6,371.8,153.6,379.2,153z
			 M182.8,240.8C182.8,240.8,182.8,240.8,182.8,240.8C182.7,240.8,182.8,240.8,182.8,240.8z M184.6,241.1c-0.2,0-0.3,0-0.6-0.1
			C184.2,241.1,184.4,241.1,184.6,241.1z M183.9,241c-0.2,0-0.4,0-0.6-0.1C183.5,240.9,183.7,241,183.9,241z M166.3,227.8
			c0.8-2.6,4.1-4.1,8.7-4.2l0,0c0.3,0,0.6,0,0.9,0c0.1,0,0.2,0,0.3,0c0.3,0,0.6,0,0.9,0c0.1,0,0.2,0,0.4,0c0.3,0,0.7,0,1,0
			c-3.7,7.9-5.2,13.4-5.3,13.6C168.3,234.4,165.4,230.8,166.3,227.8z M173.9,237.6c-0.2-0.1-0.4-0.2-0.6-0.3
			C173.5,237.4,173.8,237.5,173.9,237.6z M205.5,241.3l-2.1,25.6c0,0-1.6,7-6.3,9.3c-13.5,6.7-30.3,4.1-42.7-4.8
			c-14.6-10.4-9.7-22.5-9.7-22.5l14.3-21.2c-2.2,7.5,6.4,16.7,19.2,20.4C191.2,251.8,203.3,248.7,205.5,241.3z M190.7,227.2
			c0.1,0,0.3,0.1,0.4,0.2c0.2,0.1,0.5,0.3,0.7,0.4c0.1,0,0.3,0.2,0.5,0.2c0.3,0.2,0.6,0.3,0.9,0.5c0.2,0.1,0.3,0.2,0.5,0.3
			c0.1,0.1,0.2,0.2,0.4,0.3c0.3,0.2,0.6,0.5,0.9,0.8c0,0,0.1,0.1,0.2,0.2c0.2,0.1,0.3,0.3,0.5,0.5c0,0,0,0,0.1,0.1
			c0.3,0.3,0.6,0.6,0.9,0.9c0,0,0,0,0,0c1.6,1.8,2.2,3.7,1.8,5.4c-1,3.5-6.8,5-13.8,4c0.2-0.5,2.1-6.6,5.5-14.2
			C190.4,227.1,190.6,227.1,190.7,227.2z M331.3,179c-5.3,1.8-11.9,2.7-20.1,2c16.2-10.3,33.5-20.3,41.4-21.9
			c-0.2,0.5-0.5,1.1-0.8,1.7C348.1,168,342.2,175.3,331.3,179z"/>
		<path fill="#FFFFFF" d="M438.1,110.9c10-4.5,17.1-8.1,17.1-8.1S448,106.2,438.1,110.9z"/>
		<path fill="#FFFFFF" d="M387,96.5c0.9-2,1.5-3.3,1.5-3.3S387.9,94.5,387,96.5z"/>
	</g>
	<g>
		<path fill="#FFFFFF" d="M324,72c0.2,3-2,5.7-5,5.9c-3,0.2-5.7-2-5.9-5c-0.2-3,2-5.7,5-5.9C321,66.7,323.7,69,324,72z"/>
		<path fill="#FFFFFF" d="M430.6,101.8c0.2,2-1.3,3.8-3.4,4c-2,0.2-3.8-1.3-4-3.4c-0.2-2,1.3-3.8,3.4-4
			C428.6,98.2,430.4,99.7,430.6,101.8z"/>
		<path fill="#FFFFFF" d="M445.8,81.6c0.1,1.6-1,2.9-2.6,3.1c-1.6,0.1-2.9-1-3.1-2.6s1-2.9,2.6-3.1C444.2,78.9,445.6,80,445.8,81.6z
			"/>
		<circle fill="#FFFFFF" cx="405.3" cy="184.7" r="2.8"/>
		<path fill="#FFFFFF" d="M297.7,105.5c0.1,1.6-1,2.9-2.6,3.1c-1.6,0.1-2.9-1-3.1-2.6c-0.1-1.6,1-2.9,2.6-3.1
			C296.2,102.8,297.6,104,297.7,105.5z"/>
		<path fill="#FFFFFF" d="M279.4,72.4c0.2,1.9-1.3,3.6-3.2,3.8c-1.9,0.2-3.6-1.3-3.8-3.2c-0.2-1.9,1.3-3.6,3.2-3.8
			C277.6,69,279.2,70.5,279.4,72.4z"/>
		<path fill="#FFFFFF" d="M462.5,157.3c0.2,2.3-1.6,4.4-3.9,4.6s-4.4-1.6-4.6-3.9c-0.2-2.3,1.6-4.4,3.9-4.6
			C460.3,153.2,462.4,155,462.5,157.3z"/>
	</g>
</g>
</svg>
